  0
SECTION
  2
HEADER
  9
$ACADVER
  1
AC1009
  9
$INSBASE
 10
0.0
 20
0.0
 30
0.0
  9
$EXTMIN
 10
0.0
 20
0.0
 30
0.0
  9
$EXTMAX
 10
0.0
 20
0.0
 30
0.0
  0
ENDSEC
  0
SECTION
  2
TABLES
  0
TABLE
  2
VPORT
 70
0
  0
ENDTAB
  0
TABLE
  2
LTYPE
 70
1
  0
LTYPE
  2
CONTINUOUS
 70
0
  3
Solid line
 72
65
 73
0
 40
0.0
  0
ENDTAB
  0
TABLE
  2
LAYER
 70
1
  0
LAYER
  2
0
 70
64
 62
7
  6
continuous
  0
ENDTAB
  0
TABLE
  2
STYLE
 70
1
  0
STYLE
  2
STANDARD
 70
0
 40
0
 41
1.0
 50
0.0
 71
0
 42
1
 3
ARIAL.TTF
 4

  0
ENDTAB
  0
TABLE
  2
VIEW
 70
0
  0
ENDTAB
  0
ENDSEC
  0
SECTION
  2
BLOCKS
  0
BLOCK
  8
0
  2
SKETCH006
 70
0
 10
0.0
 20
0.0
 30
0.0
  3
SKETCH006
  0
CIRCLE
  8
0
 62
7
 10
-57.5
 20
90.5
 30
0.0
 40
1.4
  0
CIRCLE
  8
0
 62
7
 10
57.5
 20
90.5
 30
0.0
 40
1.4
  0
CIRCLE
  8
0
 62
7
 10
57.5
 20
-90.5
 30
0.0
 40
1.4
  0
CIRCLE
  8
0
 62
7
 10
-57.5
 20
-90.5
 30
0.0
 40
1.4
  0
ENDBLK
  0
BLOCK
  8
0
  2
SKETCH
 70
0
 10
0.0
 20
0.0
 30
0.0
  3
SKETCH
  0
CIRCLE
  8
0
 62
7
 10
8.09397392847
 20
-30.4869446012
 30
0.0
 40
1.5
  0
CIRCLE
  8
0
 62
7
 10
8.09397392847
 20
-78.4869446012
 30
0.0
 40
1.5
  0
CIRCLE
  8
0
 62
7
 10
59.0939739285
 20
-45.4869446012
 30
0.0
 40
1.5
  0
CIRCLE
  8
0
 62
7
 10
59.0939739285
 20
-73.4869446012
 30
0.0
 40
1.5
  0
ENDBLK
  0
BLOCK
  8
0
  2
SKETCH005
 70
0
 10
0.0
 20
0.0
 30
0.0
  3
SKETCH005
  0
CIRCLE
  8
0
 62
7
 10
-56.0
 20
79.0
 30
7.0
 40
1.2
  0
CIRCLE
  8
0
 62
7
 10
2.0
 20
79.0
 30
7.0
 40
1.2
  0
CIRCLE
  8
0
 62
7
 10
2.0
 20
30.0
 30
7.0
 40
1.2
  0
CIRCLE
  8
0
 62
7
 10
-56.0
 20
30.0
 30
7.0
 40
1.2
  0
ENDBLK
  0
BLOCK
  8
0
  2
POLYLINE
 70
0
 10
0.0
 20
0.0
 30
0.0
  3
POLYLINE
  0
ARC
  8
0
 62
0
 10
-66.8202239441
 20
0.483946
 30
0.0
 40
9.39999998224
 50
-79.3848921493
 51
79.3848921493
  0
ARC
  8
0
 62
0
 10
-64.7202237452
 20
-10.7209638421
 30
0.0
 40
2.00000025479
 50
100.615112375
 51
-179.999995482
  0
LINE
  8
0
 62
0
 10
-66.720224
 20
-10.720964
 30
0.0
 11
-66.720224
 21
-93.016054
 31
0.0
  0
ARC
  8
0
 62
0
 10
-64.7202255
 20
-93.0160555
 30
0.0
 40
1.9999985
 50
179.999957022
 51
-90.0000429719
  0
LINE
  8
0
 62
0
 10
-64.720227
 20
-95.016054
 30
0.0
 11
-57.520224
 21
-95.016054
 31
0.0
  0
ARC
  8
0
 62
0
 10
-57.5202243912
 20
-104.416054337
 30
0.0
 40
9.40000033717
 50
9.59406584259
 51
89.9999976157
  0
ARC
  8
0
 62
0
 10
-46.279673872
 20
-102.516052002
 30
0.0
 40
1.99999899825
 50
-170.405849495
 51
-89.9999177219
  0
LINE
  8
0
 62
0
 10
-46.279671
 20
-104.516051
 30
0.0
 11
46.639225
 21
-104.516054
 31
0.0
  0
ARC
  8
0
 62
0
 10
46.6392250972
 20
-102.516054685
 30
0.0
 40
1.99999931503
 50
-90.0000027852
 51
-9.59407101207
  0
ARC
  8
0
 62
0
 10
57.8797768912
 20
-104.416054929
 30
0.0
 40
9.40000092877
 50
89.9999993366
 51
170.40593111
  0
LINE
  8
0
 62
0
 10
57.879777
 20
-95.016054
 30
0.0
 11
65.079776
 21
-95.016054
 31
0.0
  0
ARC
  8
0
 62
0
 10
65.079778
 20
-93.016056
 30
0.0
 40
1.999998
 50
-90.0000572958
 51
-5.72919650908e-05
  0
LINE
  8
0
 62
0
 10
67.079776
 20
-93.016058
 30
0.0
 11
67.079776
 21
-10.720964
 31
0.0
  0
ARC
  8
0
 62
0
 10
65.0797757452
 20
-10.7209638421
 30
0.0
 40
2.00000025479
 50
-4.51774548785e-06
 51
79.384887625
  0
ARC
  8
0
 62
0
 10
67.1797759441
 20
0.483946
 30
0.0
 40
9.39999998224
 50
100.615107851
 51
-100.615107851
  0
ARC
  8
0
 62
0
 10
65.0797763476
 20
11.6888553421
 30
0.0
 40
1.99999965238
 50
-79.384901949
 51
-9.77188602642e-06
  0
LINE
  8
0
 62
0
 10
67.079776
 20
11.688855
 30
0.0
 11
67.079776
 21
93.983946
 31
0.0
  0
ARC
  8
0
 62
0
 10
65.0797785
 20
93.9839475
 30
0.0
 40
1.9999975
 50
-4.29779850448e-05
 51
89.9999570281
  0
LINE
  8
0
 62
0
 10
65.07978
 20
95.983945
 30
0.0
 11
57.879776
 21
95.983946
 31
0.0
  0
ARC
  8
0
 62
0
 10
57.8797757996
 20
105.383945837
 30
0.0
 40
9.39999983717
 50
-170.405930551
 51
-89.9999987783
  0
ARC
  8
0
 62
0
 10
46.639226372
 20
103.483943593
 30
0.0
 40
1.99999840664
 50
9.59413618103
 51
90.0000679542
  0
LINE
  8
0
 62
0
 10
46.639224
 20
105.483942
 30
0.0
 11
-46.279672
 21
105.483946
 31
0.0
  0
ARC
  8
0
 62
0
 10
-46.2796720056
 20
103.483945593
 30
0.0
 40
2.00000040664
 50
89.9999998392
 51
170.405931612
  0
ARC
  8
0
 62
0
 10
-57.5202237996
 20
105.383945837
 30
0.0
 40
9.39999983717
 50
-90.0000012217
 51
-9.59406944861
  0
LINE
  8
0
 62
0
 10
-57.520224
 20
95.983946
 30
0.0
 11
-64.720224
 21
95.983946
 31
0.0
  0
ARC
  8
0
 62
0
 10
-64.7202255
 20
93.9839475
 30
0.0
 40
1.9999985
 50
89.9999570281
 51
179.999957022
  0
LINE
  8
0
 62
0
 10
-66.720224
 20
93.983949
 30
0.0
 11
-66.720224
 21
11.688855
 31
0.0
  0
ARC
  8
0
 62
0
 10
-64.7202243476
 20
11.6888553421
 30
0.0
 40
1.99999965238
 50
-179.999990228
 51
-100.615098051
  0
ENDBLK
  0
ENDSEC
  0
SECTION
  2
ENTITIES
  0
INSERT
  2
SKETCH006
  8
0
 62
7
 10
0.0
 20
0.0
 30
0.0
  0
INSERT
  2
SKETCH
  8
0
 62
7
 10
0.0
 20
0.0
 30
0.0
  0
INSERT
  2
SKETCH005
  8
0
 62
7
 10
0.0
 20
0.0
 30
0.0
  0
INSERT
  2
POLYLINE
  8
0
 62
0
 10
0.0
 20
0.0
 30
0.0
  0
ENDSEC
  0
EOF
